<svg width="14500" height="112" viewBox="0 0 380 112" fill="none" xmlns="http://www.w3.org/2000/svg">
<rect width="4500" height="112" rx="10" fill="black"/>
<path d="M19.0537 64.9688C20.8246 65.9688 22.6162 66.875 24.4287 67.6875C26.2621 68.4792 28.1579 69.1562 30.1162 69.7188C32.0746 70.2604 34.1267 70.6771 36.2725 70.9688C38.4392 71.2604 40.7412 71.4062 43.1787 71.4062C46.1162 71.4062 48.6162 71.2188 50.6787 70.8438C52.7412 70.4479 54.4183 69.9167 55.71 69.25C57.0225 68.5625 57.9704 67.75 58.5537 66.8125C59.1579 65.875 59.46 64.8542 59.46 63.75C59.46 61.9792 58.7204 60.5833 57.2412 59.5625C55.7621 58.5208 53.4808 58 50.3975 58C49.0433 58 47.6162 58.0938 46.1162 58.2812C44.6162 58.4479 43.0954 58.6354 41.5537 58.8438C40.0329 59.0521 38.5225 59.25 37.0225 59.4375C35.5433 59.6042 34.1475 59.6875 32.835 59.6875C30.6475 59.6875 28.5433 59.4062 26.5225 58.8438C24.5225 58.2812 22.7412 57.4375 21.1787 56.3125C19.6371 55.1875 18.4079 53.7812 17.4912 52.0938C16.5746 50.4062 16.1162 48.4375 16.1162 46.1875C16.1162 44.8542 16.2933 43.5312 16.6475 42.2188C17.0225 40.9062 17.6058 39.6562 18.3975 38.4688C19.21 37.2604 20.2517 36.1458 21.5225 35.125C22.7933 34.0833 24.3246 33.1875 26.1162 32.4375C27.9287 31.6875 30.0121 31.1042 32.3662 30.6875C34.7412 30.25 37.4392 30.0312 40.46 30.0312C42.6475 30.0312 44.8454 30.1562 47.0537 30.4062C49.2621 30.6354 51.4079 30.9688 53.4912 31.4062C55.5954 31.8438 57.6162 32.375 59.5537 33C61.4912 33.6042 63.2933 34.2812 64.96 35.0312L60.6162 43.0312C59.2412 42.4271 57.7621 41.875 56.1787 41.375C54.5954 40.8542 52.9392 40.4062 51.21 40.0312C49.4808 39.6562 47.6892 39.3646 45.835 39.1562C44.0017 38.9271 42.1267 38.8125 40.21 38.8125C37.4808 38.8125 35.2308 39.0104 33.46 39.4062C31.71 39.8021 30.3142 40.3125 29.2725 40.9375C28.2308 41.5417 27.5017 42.2292 27.085 43C26.6892 43.75 26.4912 44.5 26.4912 45.25C26.4912 46.7083 27.1475 47.9062 28.46 48.8438C29.7725 49.7604 31.7725 50.2188 34.46 50.2188C35.5433 50.2188 36.7829 50.1458 38.1787 50C39.5954 49.8333 41.0746 49.6562 42.6162 49.4688C44.1787 49.2812 45.7621 49.1146 47.3662 48.9688C48.9912 48.8021 50.5642 48.7188 52.085 48.7188C54.96 48.7188 57.5017 49.0417 59.71 49.6875C61.9392 50.3333 63.8037 51.2604 65.3037 52.4688C66.8037 53.6562 67.9392 55.1042 68.71 56.8125C69.4808 58.5 69.8662 60.3958 69.8662 62.5C69.8662 65.3125 69.21 67.8229 67.8975 70.0312C66.6058 72.2188 64.7517 74.0729 62.335 75.5938C59.9392 77.0938 57.0433 78.2396 53.6475 79.0312C50.2517 79.8021 46.4704 80.1875 42.3037 80.1875C39.5537 80.1875 36.8662 80.0104 34.2412 79.6562C31.6162 79.3229 29.0954 78.8438 26.6787 78.2188C24.2829 77.5729 21.9912 76.8125 19.8037 75.9375C17.6371 75.0417 15.6267 74.0625 13.7725 73L19.0537 64.9688ZM124.949 30.6562H135.449L159.074 79.5H148.667L144.761 71.2812H116.23L112.449 79.5H102.011L124.949 30.6562ZM140.855 63.125L130.292 40.9375L120.011 63.125H140.855ZM184.781 87.5938C186.219 86.7188 187.448 85.8021 188.469 84.8438C189.51 83.8854 190.365 82.8229 191.031 81.6562C191.698 80.5104 192.188 79.2292 192.5 77.8125C192.812 76.375 192.969 74.75 192.969 72.9375V30.6562H202.875V71.1562C202.875 73.3229 202.781 75.3021 202.594 77.0938C202.406 78.8646 202.094 80.4896 201.656 81.9688C201.24 83.4688 200.667 84.8438 199.938 86.0938C199.229 87.3438 198.344 88.5312 197.281 89.6562C196.24 90.7812 195 91.8646 193.562 92.9062C192.146 93.9479 190.5 95 188.625 96.0625L184.781 87.5938ZM243.082 30.6562H284.676V39.3438H252.989V49.0938H281.051V57.25H252.989V70.8438H285.332V79.5H243.082V30.6562ZM323.853 30.6562H367.54V39.3438H333.759V52.125H362.446V60.2812H333.759V79.5H323.853V30.6562Z" fill="white"/>
</svg>
